# xmcd
#
# Track frame offsets: 
#        150
#        13087
#        24865
#        35587
#        45987
#        57182
#        68113
#        79452
#        90014
#        103322
#        114938
#        128438
#
# Disc length: 1847 seconds
#
# Revision: 0
# Processed by: cddbd v1.5.2PL0 Copyright (c) Steve Scherf et al.
# Submitted via: ExactAudioCopy v1.0b2
#
DISCID=8807350c
DTITLE=Patsy Cline - Too Many Secrets
DYEAR=1900
DGENRE=Ballad
TTITLE0=Fingerprints
TTITLE1=Walking After Midnight
TTITLE2=I cried all the way to the altar
TTITLE3=Three Cigarettes in the ashtray
TTITLE4=Just Out of reach
TTITLE5=Angel
TTITLE6=The Heart You Break May Be Your Own
TTITLE7=Too Many Secrets
TTITLE8=If I could see the world
TTITLE9=Cry Not for me
TTITLE10=Life's Railway To Heaven
TTITLE11=Turn The Cards Slowly
EXTD=
EXTT0=
EXTT1=
EXTT2=
EXTT3=
EXTT4=
EXTT5=
EXTT6=
EXTT7=
EXTT8=
EXTT9=
EXTT10=
EXTT11=
PLAYORDER=
